PathFileType	4	(X/Y/Z)	/home/nbianco/repos/AddBiomechanics/server/engine/../data/Rajagopal2015/processed//results/MarkerData/walk.trc
DataRate	CameraRate	NumFrames	NumMarkers	Units	OrigDataRate	OrigDataStartFrame	OrigNumFrames
100	100	4	41	m	100	178	238
Frame#	Time	L.ASIS			L.Ankle			L.Biceps			L.Clavicle			L.Elbow			L.Forearm			L.Heel			L.Knee			L.MT5			L.PSIS			L.SH1			L.SH2			L.SH3			L.Shoulder			L.TH1			L.TH2			L.TH3			L.TH4			L.Toe			L.Wrist			R.ASIS			R.Ankle			R.Biceps			R.Clavicle			R.Elbow			R.Forearm			R.Heel			R.Knee			R.MT5			R.PSIS			R.SH1			R.SH2			R.SH3			R.SH4			R.Shoulder			R.TH1			R.TH2			R.TH3			R.Toe			R.Wrist			S2		
		X1	Y1	Z1	X2	Y2	Z2	X3	Y3	Z3	X4	Y4	Z4	X5	Y5	Z5	X6	Y6	Z6	X7	Y7	Z7	X8	Y8	Z8	X9	Y9	Z9	X10	Y10	Z10	X11	Y11	Z11	X12	Y12	Z12	X13	Y13	Z13	X14	Y14	Z14	X15	Y15	Z15	X16	Y16	Z16	X17	Y17	Z17	X18	Y18	Z18	X19	Y19	Z19	X20	Y20	Z20	X21	Y21	Z21	X22	Y22	Z22	X23	Y23	Z23	X24	Y24	Z24	X25	Y25	Z25	X26	Y26	Z26	X27	Y27	Z27	X28	Y28	Z28	X29	Y29	Z29	X30	Y30	Z30	X31	Y31	Z31	X32	Y32	Z32	X33	Y33	Z33	X34	Y34	Z34	X35	Y35	Z35	X36	Y36	Z36	X37	Y37	Z37	X38	Y38	Z38	X39	Y39	Z39	X40	Y40	Z40	X41	Y41	Z41

179	1.78	1.66336	1.03563	-0.369509	1.56602	0.204587	-0.364897	1.57038	1.32713	-0.494192	1.64852	1.49638	-0.257792	1.53678	1.20786	-0.521919	1.61241	1.08815	-0.544858	1.4623	0.176746	-0.30525	1.76898	0.572195	-0.412288	1.61744	0.086576	-0.405975	1.46104	1.0224	-0.275357	1.75852	0.456431	-0.400784	1.67912	0.511206	-0.411838	1.61676	0.41431	-0.396199	1.58001	1.54991	-0.399734	1.75417	0.860213	-0.40933	1.80527	0.739754	-0.401761	1.66547	0.831273	-0.46253	1.70233	0.700693	-0.442781	1.72796	0.0599161	-0.325912	1.66242	0.984348	-0.545856	1.68721	1.02576	-0.118277	1.52343	0.107596	-0.155085	1.64007	1.27091	0.0170929	1.64989	1.4941	-0.20688	1.59745	1.17908	0.0533509	1.70333	1.07205	0.0603957	1.44072	0.0372408	-0.205188	1.60212	0.517761	-0.117809	1.63097	0.0330371	-0.119315	1.46985	1.02697	-0.183885	1.60716	0.419283	-0.117703	1.58826	0.307162	-0.119352	1.52322	0.426533	-0.107782	1.50369	0.308092	-0.115699	1.59563	1.52982	-0.0579674	1.66443	0.782426	-0.0628022	1.55678	0.767329	-0.045055	1.55676	0.643839	-0.0845757	1.74057	0.0541697	-0.217943	1.76718	0.966407	0.0627409	1.45532	1.00122	-0.226435
180	1.79	1.67486	1.03575	-0.369098	1.60121	0.194737	-0.365776	1.57898	1.32699	-0.494641	1.66053	1.49606	-0.258113	1.54393	1.20819	-0.522416	1.6187	1.08795	-0.546285	1.49929	0.159841	-0.305759	1.78488	0.574057	-0.410768	1.65977	0.0805958	-0.408043	1.47205	1.02203	-0.276496	1.77949	0.457412	-0.399699	1.6972	0.507788	-0.411168	1.64046	0.407378	-0.395989	1.59141	1.54941	-0.399856	1.76736	0.862156	-0.407154	1.81973	0.742369	-0.399508	1.68025	0.832709	-0.462164	1.71779	0.702432	-0.442456	1.77224	0.0604975	-0.328766	1.66826	0.983959	-0.548131	1.69819	1.02476	-0.117947	1.52371	0.107848	-0.155208	1.65412	1.27152	0.0175706	1.66202	1.49381	-0.207223	1.61233	1.17958	0.054584	1.72024	1.07435	0.0606942	1.44089	0.0374631	-0.205227	1.60537	0.517555	-0.117435	1.63102	0.0329981	-0.119328	1.48096	1.02636	-0.184833	1.60942	0.419123	-0.117407	1.58981	0.307214	-0.119209	1.52561	0.426897	-0.107399	1.50527	0.308719	-0.115527	1.60836	1.52989	-0.0581341	1.67278	0.781875	-0.063626	1.56435	0.768117	-0.0449215	1.56246	0.644527	-0.0843771	1.74049	0.0536762	-0.217893	1.78624	0.97009	0.0624262	1.4663	1.0007	-0.227382
181	1.8	1.68624	1.03553	-0.368711	1.6372	0.184959	-0.366708	1.58766	1.32658	-0.495073	1.67239	1.49544	-0.258548	1.55122	1.20816	-0.522774	1.62527	1.08758	-0.547618	1.53768	0.143073	-0.306369	1.79997	0.575161	-0.409131	1.70251	0.075221	-0.410291	1.48356	1.02115	-0.277441	1.80028	0.458033	-0.398736	1.71482	0.503581	-0.410684	1.66402	0.40001	-0.395929	1.60275	1.54859	-0.400004	1.78044	0.863529	-0.404999	1.83388	0.74426	-0.397099	1.69465	0.833769	-0.461746	1.73288	0.703566	-0.442075	1.81675	0.0618119	-0.331894	1.67428	0.983421	-0.550181	1.70926	1.02368	-0.117594	1.52399	0.108142	-0.155374	1.66811	1.27183	0.0179616	1.67428	1.49329	-0.20758	1.62722	1.17976	0.0557805	1.73714	1.07633	0.0608853	1.44102	0.0377162	-0.20532	1.60865	0.517362	-0.11708	1.63103	0.0329247	-0.119341	1.49199	1.02553	-0.185919	1.61165	0.419004	-0.117054	1.59118	0.30726	-0.11901	1.52789	0.427346	-0.107175	1.50676	0.309226	-0.115528	1.62114	1.52965	-0.0583285	1.68061	0.781378	-0.0639994	1.5706	0.769439	-0.0438411	1.56809	0.645172	-0.0841645	1.74063	0.0533917	-0.217841	1.80496	0.973412	0.0619502	1.47759	0.999773	-0.228515
182	1.81	1.69777	1.03493	-0.368402	1.67385	0.175361	-0.36764	1.59659	1.3259	-0.495443	1.68438	1.4945	-0.258943	1.55874	1.20779	-0.523022	1.632	1.08693	-0.548836	1.57761	0.126496	-0.307044	1.81428	0.575571	-0.407372	1.74557	0.0706433	-0.412648	1.4955	1.01994	-0.278353	1.8208	0.458126	-0.397973	1.73206	0.498747	-0.410165	1.68762	0.392091	-0.396007	1.61425	1.54741	-0.400232	1.79328	0.864107	-0.402998	1.84749	0.745284	-0.394633	1.70865	0.834157	-0.461391	1.74748	0.704037	-0.441588	1.86115	0.0640831	-0.335093	1.68047	0.982707	-0.552187	1.72028	1.02245	-0.117198	1.52431	0.108454	-0.155594	1.68202	1.27181	0.0183226	1.68652	1.49246	-0.208004	1.64228	1.17962	0.0568664	1.75393	1.07814	0.0609208	1.44106	0.0380442	-0.205432	1.61188	0.517169	-0.116651	1.63106	0.0328809	-0.11935	1.50321	1.0244	-0.187068	1.61364	0.418781	-0.116623	1.59243	0.307247	-0.118791	1.53004	0.427831	-0.107213	1.508	0.309799	-0.115699	1.63394	1.5291	-0.0585731	1.68644	0.780417	-0.0624797	1.57738	0.770269	-0.0432768	1.57373	0.645733	-0.0838911	1.74089	0.0531598	-0.21773	1.82356	0.976498	0.0613869	1.48906	0.998636	-0.229778
